<svg xmlns="http://www.w3.org/2000/svg"
    xmlns:xlink="http://www.w3.org/1999/xlink" width="176px" height="50px" viewBox="0 0 176 50" fill-rule="evenodd" stroke-linejoin="round" stroke-miterlimit="1.41421">
    <g transform="matrix(1.12949 0 0 1.12949 -53.1406 -47.1078)">
        <path a="" d="M54.926 46l7.554-4.303c.06 0 .252.082.547.232 1.198.606 4.11 2.314 7.008 4.07.015 3.733-1.908 5.78-7.554 4.585-3.125 1.784-5.584-.07-7.555-4.585z" fill="#e39876"></path>
        <use xlink:href="#B" fill="#cfced1"></use>
        <use xlink:href="#B" fill="#ec7944"></use>
        <path d="M62.823 59.662l-7.87 4.776-7.67-4.515v-.106l7.783-4.723 7.756 4.568z" fill="#b5b7ba"></path>
        <use xlink:href="#B" fill="#e58254"></use>
        <path d="M77.445 50.788c.31.714.308 17.604 0 18.163s-14.223 9.006-14.964 9.082V59.87l7.64-4.638h.001l7.322-4.444z" fill="#424f55"></path>
        <path d="M54.838 55.232l-7.554 4.585.23-9.03 7.323 4.444z" fill="#cfced1"></path>
        <path d="M62.48 59.87v9.275l-7.643-4.638 7.643-4.637z" fill="#9b9ea5"></path>
        <path d="M54.882 64.507c-1.236 3.36-4 4.367-7.367 4.444-.154-.28-.23-4.647-.23-9.028 2.8.572 5.47 1.663 7.6 4.584z" fill="#c2c2c6"></path>
        <path d="M70.598 55.33l-8.18 4.964-8.647-4.81c.602-3 3.515-4.838 8.773-4.9 4.836-1.174 8.284-.576 8.055 4.734z" fill="#e58254"></path>
        <path d="M77.447 68.943l-.002.008c-.163.297-4.152 2.81-7.973 5.116l-8.3-5.258 8.204-4.978 8.07 5.112z" fill="#677277"></path>
        <path d="M70.035 46l7.4 4.778-7.323 4.444-7.64-4.637 3.82-2.32L70.035 46z" fill="#ef692b"></path>
        <path d="M77.677 59.816v.107l-7.555 4.584-7.64-4.637 7.64-4.638 7.555 4.584z" fill="#424f55"></path>
        <path d="M77.677 59.816v.107c-1.61 3.387-4.34 4.483-7.555 4.584-4.546 1.107-6.987-.58-7.64-4.637l7.64-4.638c3.775.227 6.453 1.6 7.555 4.584z" fill="#5c656b"></path>
        <path d="M77.445 50.788c.153.354.23 4.683.232 9.028l-7.555-4.584 7.323-4.444z" fill="#424f55"></path>
        <path d="M77.445 68.95c-.155.282-3.77 2.57-7.4 4.778-3.883 1.137-5.92-1.328-7.554-4.584 1.164-2.16 2.604-4.196 7.64-4.638 5.418-.626 6.683 1.688 7.323 4.444z" fill="#677277"></path>
        <path d="M47.515 68.95l7.725-4.687 7.798 4.435-8.043 4.88-3.893-2.214-3.587-2.415z" fill="#a8abaf"></path>
        <path d="M77.676 59.923l-.23 9.028-7.323-4.444 7.554-4.584z" fill="#4e5a5f"></path>
        <path d="M54.882 55.232c-1.427 3.624-3.22 5.453-7.598 4.585l.014-3.077.187-5.8.03-.162c.022-.04.11-.116.258-.228l7.11 4.672z" fill="#cfced1"></path>
        <path d="M54.926 46.01l7.555 4.585-7.642 4.638-7.323-4.444c.155-.282 3.77-2.57 7.41-4.78z" fill="#deb6a7"></path>
        <path d="M62.48 59.87c-1.4 2.748-3.603 4.64-7.643 4.637l-7.554-4.584v-.106l7.554-4.585 7.643 4.638z" fill="#b5b7ba"></path>
        <path d="M47.515 68.95l7.323-4.444c2.795.622 5.467 1.704 7.642 4.638-1.84 1.985-4.467 3.44-7.555 4.585l-7.4-4.78z" fill="#a8abaf"></path>
        <path d="M70.123 64.507l-7.642 4.638-7.642-4.638 7.642-4.637 7.642 4.637z" fill="#9b9ea5"></path>
        <path d="M70.035 73.73l-7.555 4.304c-.308 0-3.943-2.113-7.555-4.304l7.555-4.584 7.555 4.584z" fill="#8f9499"></path>
        <g id="logo-text" fill="#404e55">
            <path d="M97.774 63.866c-.657 1.124-1.783 2.05-3.627 2.05-3.126 0-4.314-2.908-4.314-4.593V61.3c0-2.082 1.313-4.726 4.283-4.726 2.2 0 3.377 1.3 3.94 2.545.344.76.5 1.586.438 2.412s-.282 1.62-.72 2.346zm5.908 6.543V52.07h-5.2v1.95c-.688-1.123-2.282-2.577-5.127-2.577-4.627 0-8.722 3.767-8.722 9.78 0 5.255 3.22 9.815 8.722 9.815 2.032 0 4.2-.826 5.127-2.6v1.982h5.2zm13.633-5.915a4.44 4.44 0 0 1-3.22 1.388c-2.44 0-4.346-1.884-4.346-4.692v-.033c0-2.115 1.407-4.594 4.408-4.594 1.22 0 2.314.463 3.096 1.3.78.794 1.28 1.917 1.28 3.24.063 1.355-.406 2.544-1.22 3.403zm.938-12.854v1.983c-.563-.594-2.032-2.18-5.096-2.18-4.408 0-8.596 3.535-8.596 9.748 0 5.518 3.437 9.813 8.7 9.813 3.5 0 4.752-1.817 5.252-2.576V70.4h4.94V45.957h-5.2v5.683zM135.45 70.4l6.252-18.34h-5.376l-3.346 11.433-3.345-11.433h-5.376l6.22 18.34h4.97zm13.88-14.342c2.688 0 3.75 2.05 3.876 2.908h-7.753c.125-.86 1.188-2.908 3.877-2.908zm.062 14.935c1.782 0 3.502-.56 4.94-1.652 1.47-1.057 2.7-2.643 3.534-4.692h-5.315c-.626.96-1.5 1.718-3.158 1.718-2.032 0-3.782-1.288-4.002-3.238h12.912c.406-3.37-.25-6.3-2.44-8.8-1.625-1.817-3.907-2.908-6.565-2.908-5.283 0-9.097 4.725-9.097 9.847 0 5.45 4.22 9.714 9.2 9.714zM168.7 56.96v-4.883c-3 0-3.907 1.05-4.407 2.04V52.07h-4.877V70.4h5.2v-9.847c0-2.578 1.25-3.602 3.907-3.602h.187z" fill-rule="nonzero"></path>
            <path d="M169.6 45.957h5.19v4.163h-5.19z"></path>
            <path d="M197.368 52.07l-3.314 10.64-3.532-10.64h-6.565v-6.113h-5.2v6.113h-9.17V70.4h5.2V56.234h3.98V70.4h5.2V56.234h2.5v-.2l4.97 13.44-1.676 4.286h5.405l7.713-21.7h-5.502zM89.364 80.17l.32-.668c-.546-.366-1.326-.6-2.088-.6-1.363 0-2.275.658-2.275 1.693 0 2.36 3.704 1.43 3.695 3.187 0 .64-.592 1.025-1.542 1.025-.743 0-1.58-.34-2.2-.922l-.34.65a3.76 3.76 0 0 0 2.52 1.006c1.4 0 2.378-.705 2.378-1.796.01-2.388-3.694-1.495-3.694-3.206 0-.564.554-.902 1.4-.902a3.46 3.46 0 0 1 1.815.545zm2.02-1.25v6.58h.715v-5.47l2.388 4.776h.45l2.398-4.776.01 5.472h.696v-6.58h-.922l-2.397 4.776-2.407-4.776h-.93zm13.558 6.58h.818l-2.943-6.58h-.78l-2.952 6.58h.8l.734-1.683h3.582l.743 1.683zm-4.015-2.38l1.476-3.385 1.495 3.385h-2.97zm11.028 2.38l-1.55-2.247c.95-.3 1.485-1.044 1.485-2.125 0-1.4-.95-2.2-2.594-2.2h-2.5v6.58h.752V83.41h1.75l.423-.02 1.378 2.11h.855zm-4.4-2.783v-3.103h1.75c1.194 0 1.87.527 1.87 1.533 0 1.034-.677 1.57-1.87 1.57h-1.75zm5.154-3.797v.695h2.144V85.5h.752v-5.886h2.153v-.695h-5.05zm8.02 0l2.2 6.58h.77l1.795-5.575 1.777 5.575h.77l2.2-6.58h-.78l-1.786 5.735-1.805-5.735h-.752l-1.787 5.735-1.805-5.735h-.808z" fill-rule="nonzero"></path>
            <path d="M131.22 78.92h.752v6.58h-.752z"></path>
            <path d="M133.073 78.92v.695h2.143V85.5h.752v-5.886h2.153v-.695h-5.048zm6.14 0v6.58h.752v-2.915h3.968V85.5h.752v-6.58h-.752v2.98h-3.968v-2.98h-.752zm12.946 0h-2.66v6.58h2.633c1.937 0 3.413-1.42 3.413-3.3s-1.467-3.3-3.385-3.3zm.01 5.885h-1.918v-5.2h1.9c1.476 0 2.642 1.12 2.642 2.605 0 1.476-1.147 2.585-2.613 2.585zm9.486.695h.818l-2.943-6.58h-.78l-2.952 6.58h.8l.733-1.683h3.582l.743 1.683zm-4.015-2.38l1.476-3.385 1.495 3.385h-2.97zm4.353-4.2v.695h2.144V85.5h.752v-5.886h2.153v-.695h-5.05zM172.4 85.5h.817l-2.942-6.58h-.78l-2.952 6.58h.8l.734-1.683h3.582l.743 1.683zm-4.015-2.38l1.476-3.385 1.495 3.385h-2.97z" fill-rule="nonzero"></path>
        </g>
    </g>
    <defs>
        <path id="B" d="M70.123 55.232L62.48 59.87 54.84 55.23l7.642-4.637 7.642 4.637z"></path>
    </defs>
</svg>